<svg version="1.1" xmlns="http://www.w3.org/2000/svg" xmlns:xlink="http://www.w3.org/1999/xlink" width="800px" height="800px" viewBox="0,0,256,256"><g fill="none" fill-rule="nonzero" stroke="none" stroke-width="1" stroke-linecap="butt" stroke-linejoin="miter" stroke-miterlimit="10" stroke-dasharray="" stroke-dashoffset="0" font-family="none" font-weight="none" font-size="none" text-anchor="none" style="mix-blend-mode: normal"><g transform="scale(5.33333,5.33333)"><g id="Layer_2"><g id="invisible_box" fill="none"><rect x="0" y="0" width="48" height="48"></rect></g><g id="icons_Q2" fill="#915492"><path d="M24,2c-9.9,0 -17,8.1 -17,18c0,9.9 11.5,21.3 15.6,25.4c0.35985,0.3922 0.86772,0.61548 1.4,0.61548c0.53228,0 1.04015,-0.22327 1.4,-0.61548c4.1,-4.1 15.6,-15.3 15.6,-25.4c0,-10.1 -7.1,-18 -17,-18zM29.7,18.7l-2.1,2l0.5,3.1c0.0262,0.37652 -0.14248,0.74019 -0.44685,0.96339c-0.30437,0.2232 -0.70191,0.27477 -1.05315,0.13661l-2.6,-1.9l-2.6,1.9c-0.35124,0.13816 -0.74879,0.08659 -1.05315,-0.13661c-0.30437,-0.2232 -0.47304,-0.58686 -0.44685,-0.96339l0.5,-3.1l-2.1,-2c-0.25679,-0.29378 -0.33874,-0.70161 -0.21535,-1.07178c0.12339,-0.37017 0.43364,-0.64727 0.81535,-0.72822l2.9,-0.4l1.3,-2.9c0.16709,-0.34499 0.51668,-0.56411 0.9,-0.56411c0.38332,0 0.73291,0.21912 0.9,0.56411l1.3,2.9l2.9,0.4c0.3817,0.08095 0.69196,0.35805 0.81535,0.72822c0.12339,0.37017 0.04145,0.778 -0.21535,1.07178z"></path></g></g></g></g></svg>