<svg version="1.1" xmlns="http://www.w3.org/2000/svg" xmlns:xlink="http://www.w3.org/1999/xlink" width="800px" height="800px" viewBox="0,0,256,256"><g fill="none" fill-rule="nonzero" stroke="none" stroke-width="1" stroke-linecap="butt" stroke-linejoin="miter" stroke-miterlimit="10" stroke-dasharray="" stroke-dashoffset="0" font-family="none" font-weight="none" font-size="none" text-anchor="none" style="mix-blend-mode: normal"><g transform="translate(0.00025,0.00025)"><g><g transform="translate(-0.00026,0) scale(0.5,0.5)"><path d="M152.416,284.313h-129.689c-12.532,0 -22.727,-10.194 -22.727,-22.727v-92.76c0,-12.531 10.195,-22.726 22.727,-22.726h129.689c12.532,0 22.727,10.195 22.727,22.727v92.76c0,12.532 -10.196,22.726 -22.727,22.726zM27.63,256.683h119.883v-82.953h-119.883z" fill="#915492"></path><path d="M156.1,175.338l-63.802,48.65c-2.791,2.128 -6.66,2.128 -9.451,0l-63.803,-48.648c-5.931,-4.522 -2.733,-13.99 4.726,-13.99h127.607c7.457,-0.003 10.655,9.466 4.723,13.988z" fill-opacity="0" fill="#ff9300"></path><g fill="#915492"><path d="M87.572,239.399c-4.708,0 -9.362,-1.574 -13.105,-4.429l-63.799,-48.645c-7.377,-5.623 -10.339,-15.308 -7.372,-24.098c2.969,-8.789 11.196,-14.695 20.472,-14.695h127.607c9.277,0 17.504,5.905 20.471,14.694c2.967,8.789 0.007,18.473 -7.37,24.099l-63.803,48.648c-3.74,2.853 -8.394,4.426 -13.101,4.426zM41.597,175.162l45.974,35.056l45.975,-35.056z"></path><path d="M333.981,378.786c-35.77,0 -85.813,-9.108 -121.091,-52.497c-12.898,-15.858 -20.209,-34.254 -27.278,-52.047c-7.67,-19.318 -14.9,-37.529 -28.576,-51.136c-5.077,-5.052 -5.45,-13.148 -0.862,-18.645c13.95,-16.715 62.961,-71.248 107.923,-71.248c1.04,0 2.093,0.029 3.106,0.087c33.767,1.894 61.412,21.517 82.257,58.363c29.995,-37.658 109.256,-46.54 133.949,-48.408c7.681,-0.571 15.223,2.202 20.694,7.631c5.503,5.458 8.359,13.028 7.836,20.764c-3.171,46.956 -14.343,83.715 -34.104,112.074c1.742,0.188 3.966,0.316 6.793,0.316c0.003,0 0.006,0 0.008,0c7.071,0 13.378,4.417 15.77,10.995c2.389,6.573 0.392,14.006 -4.971,18.494c-6.801,5.697 -14.307,11.447 -22.309,17.089c-4.109,2.897 -8.402,5.804 -12.762,8.641c-6.398,4.16 -14.953,2.347 -19.114,-4.048c-4.16,-6.396 -2.347,-14.953 4.048,-19.114c4.074,-2.65 8.082,-5.362 11.909,-8.06c0.623,-0.439 1.243,-0.881 1.861,-1.321c-0.018,-0.01 -0.033,-0.019 -0.051,-0.029c-3.302,-1.786 -6.003,-4.185 -8.022,-7.126c-5.652,-8.216 -5.375,-19.029 0.698,-26.894c18.819,-24.414 29.491,-57.714 32.603,-101.771c-47.93,3.794 -101.976,18.034 -115.662,41.518c-4.172,7.166 -11.944,11.494 -20.24,11.305c-8.377,-0.227 -15.909,-4.969 -19.707,-12.377c-16.443,-32.058 -37.654,-49.035 -63.043,-50.459c-0.513,-0.029 -1.031,-0.041 -1.545,-0.041c-22.154,0 -54.205,25.094 -78.972,52.428c12.293,15.831 19.584,34.194 26.152,50.736c6.312,15.887 12.827,32.28 23.05,44.85c28.426,34.962 69.883,42.299 99.656,42.299c22.227,0 46.196,-4.274 67.496,-12.033c7.171,-2.614 15.098,1.082 17.708,8.252c2.612,7.167 -1.082,15.097 -8.252,17.708c-24.256,8.838 -51.586,13.704 -76.956,13.704z"></path><circle cx="240.589" cy="215.211" r="15.657"></circle></g></g></g></g></g></svg>