<svg version="1.1" xmlns="http://www.w3.org/2000/svg" xmlns:xlink="http://www.w3.org/1999/xlink" width="800px" height="800px" viewBox="0,0,256,256"><g fill="none" fill-rule="nonzero" stroke="none" stroke-width="1" stroke-linecap="butt" stroke-linejoin="miter" stroke-miterlimit="10" stroke-dasharray="" stroke-dashoffset="0" font-family="none" font-weight="none" font-size="none" text-anchor="none" style="mix-blend-mode: normal"><g transform="translate(-0.00128,0.00086) scale(2.56,2.56)"><g id="Layer_1" fill-opacity="0" fill="#000000" font-family="Inter, apple-system, BlinkMacSystemFont, &quot;Helvetica Neue&quot;, &quot;Segoe UI&quot;, &quot;Fira Sans&quot;, Roboto, Oxygen, Ubuntu, &quot;Droid Sans&quot;, Arial, sans-serif" font-weight="400" font-size="16" text-anchor="start"></g><g id="Layer_2" fill="#ffb300"><g><g><path d="M85.22,24.958c-11.459,-8.575 -22.438,-8.334 -22.438,-8.334l-1.122,1.282c13.623,4.087 19.954,10.097 19.954,10.097c-19.491,-10.731 -44.317,-10.654 -64.59,0c0,0 6.571,-6.331 20.996,-10.418l-0.801,-0.962c0,0 -10.899,-0.24 -22.438,8.334c0,0 -11.54,20.755 -11.54,46.319c0,0 6.732,11.54 24.442,12.101c0,0 2.965,-3.526 5.369,-6.571c-10.177,-3.045 -14.024,-9.376 -14.024,-9.376c6.394,4.001 12.859,6.505 20.916,8.094c13.108,2.698 29.413,-0.076 41.591,-8.094c0,0 -4.007,6.491 -14.505,9.456c2.404,2.965 5.289,6.411 5.289,6.411c17.71,-0.561 24.441,-12.101 24.441,-12.02c-0.001,-25.564 -11.54,-46.319 -11.54,-46.319zM35.055,63.824c-4.488,0 -8.174,-3.927 -8.174,-8.815c0.328,-11.707 16.102,-11.671 16.348,0c0,4.888 -3.607,8.815 -8.174,8.815zM64.304,63.824c-4.488,0 -8.174,-3.927 -8.174,-8.815c0.36,-11.684 15.937,-11.689 16.348,0c0,4.888 -3.606,8.815 -8.174,8.815z"></path></g></g></g></g></g></svg>