<svg version="1.1" xmlns="http://www.w3.org/2000/svg" xmlns:xlink="http://www.w3.org/1999/xlink" width="800px" height="800px" viewBox="0,0,256,256"><g fill="none" fill-rule="nonzero" stroke="none" stroke-width="1" stroke-linecap="butt" stroke-linejoin="miter" stroke-miterlimit="10" stroke-dasharray="" stroke-dashoffset="0" font-family="none" font-weight="none" font-size="none" text-anchor="none" style="mix-blend-mode: normal"><g transform="translate(0.00009,0) scale(0.5,0.5)"><g fill="#915492"><path d="M311.565,389.64h-225.732c-41.556,0 -75.364,-33.807 -75.364,-75.364c0,-41.557 33.807,-75.364 75.364,-75.364h173.553c7.966,0 14.427,6.459 14.427,14.427c0,7.968 -6.46,14.427 -14.427,14.427h-173.553c-25.645,0 -46.51,20.864 -46.51,46.51c0,25.646 20.864,46.51 46.51,46.51h225.731c7.966,0 14.427,6.459 14.427,14.427c0,7.968 -6.459,14.427 -14.426,14.427z"></path><path d="M311.565,512h-280.676c-7.968,0 -14.427,-6.459 -14.427,-14.427c0,-7.968 6.459,-14.427 14.427,-14.427h280.677c25.645,0 46.509,-20.864 46.509,-46.51c0,-25.646 -20.864,-46.51 -46.509,-46.51h-225.733c-7.968,0 -14.427,-6.459 -14.427,-14.427c0,-7.968 6.459,-14.427 14.427,-14.427h225.731c41.556,0 75.362,33.807 75.362,75.364c0,41.557 -33.805,75.364 -75.361,75.364z"></path></g><path d="M295.513,193.671l15.261,15.258c1.306,-0.711 2.717,-1.418 4.139,-2.219c13.099,-7.264 38.961,-25.098 57.824,-43.961c18.905,-18.91 36.807,-44.78 44.065,-57.88c0.782,-1.376 1.102,-2.278 1.813,-3.566l-14.314,-13.453l-1.483,-1.483c-11.341,-11.341 -11.341,-29.729 0,-41.07l22.366,-22.366c11.404,-11.404 29.917,-11.331 41.231,0.163l5.961,6.056c3.882,4.964 7.174,10.739 9.587,16.898c2.229,5.882 3.656,11.514 4.273,17.119c5.446,45.031 -15.128,86.195 -70.959,142.049c-77.2,77.177 -139.011,71.826 -141.7,71.526c-5.836,-0.688 -11.839,-2.539 -17.539,-4.745c-6.111,-2.388 -11.937,-5.73 -16.876,-9.612l-6.058,-5.957c-11.505,-11.312 -11.583,-29.833 -0.175,-41.242l21.514,-21.514c11.343,-11.34 29.728,-11.342 41.07,-0.001z" fill="#a06aa1"></path><path d="M278.051,291.353c-3.282,0 -5.339,-0.189 -6.071,-0.271c-6.42,-0.756 -13.309,-2.594 -21.148,-5.628c-7.386,-2.885 -14.487,-6.935 -20.584,-11.723c-0.42,-0.33 -0.821,-0.682 -1.202,-1.057l-6.058,-5.957c-8.329,-8.189 -12.942,-19.131 -12.991,-30.811c-0.049,-11.68 4.472,-22.66 12.732,-30.919l21.514,-21.515c8.21,-8.21 19.127,-12.732 30.737,-12.732c11.609,0 22.523,4.521 30.733,12.73l7.508,7.506c12.714,-7.803 33.419,-22.532 49.316,-38.428c15.659,-15.663 30.088,-35.78 37.974,-48.462l-6.09,-5.722c-0.11,-0.104 -0.218,-0.209 -0.326,-0.316l-1.482,-1.485c-8.206,-8.204 -12.726,-19.12 -12.726,-30.73c0,-11.61 4.521,-22.526 12.73,-30.736l22.364,-22.364c8.211,-8.212 19.127,-12.733 30.736,-12.733c11.742,0 22.744,4.608 30.98,12.975l5.96,6.055c0.387,0.391 0.749,0.804 1.085,1.235c4.743,6.068 8.774,13.164 11.654,20.525c0.02,0.048 0.038,0.095 0.056,0.144c2.691,7.098 4.364,13.829 5.114,20.575c6.014,49.945 -15.744,94.542 -75.087,153.908c-70.482,70.461 -130.662,75.936 -147.428,75.936zM275.255,262.416c0.027,0 1.024,0.085 2.796,0.085c13.964,0 64.388,-4.866 127.026,-67.485c52.32,-52.34 71.683,-90.038 66.836,-130.114c-0.006,-0.052 -0.013,-0.102 -0.019,-0.153c-0.472,-4.299 -1.584,-8.718 -3.396,-13.511c-1.775,-4.516 -4.192,-8.851 -7.02,-12.59l-5.344,-5.43c-2.77,-2.813 -6.469,-4.363 -10.418,-4.363c-3.902,0 -7.573,1.521 -10.332,4.28l-22.364,22.364c-2.76,2.761 -4.28,6.431 -4.28,10.334c0,3.904 1.519,7.574 4.28,10.334l1.327,1.329l14.15,13.297c4.808,4.52 5.938,11.726 2.741,17.501c-0.179,0.322 -0.304,0.6 -0.437,0.877c-0.326,0.682 -0.769,1.611 -1.415,2.754c-7.314,13.182 -25.684,40.255 -46.445,61.023c-20.645,20.646 -47.81,39.047 -61.032,46.379c-0.883,0.496 -1.835,1 -2.763,1.489c-0.501,0.263 -0.993,0.521 -1.466,0.779c-5.615,3.064 -12.581,2.063 -17.107,-2.464l-15.261,-15.259c-2.76,-2.76 -6.43,-4.28 -10.332,-4.28c-3.904,0 -7.574,1.521 -10.335,4.28l-21.513,21.514c-2.777,2.777 -4.298,6.469 -4.28,10.396c0.017,3.927 1.568,7.606 4.368,10.36l5.449,5.357c3.768,2.867 8.116,5.3 12.623,7.062c5.501,2.128 10.083,3.395 13.969,3.853c-0.006,0.002 -0.007,0.002 -0.006,0.002z" fill="#915492"></path></g></g></svg>